<svg xmlns="http://www.w3.org/2000/svg" xmlns:xlink="http://www.w3.org/1999/xlink" version="1.1"><metadata>Created by FontForge 20170731 at Tue Oct 9 12:12:54 2018 By Aleksey,,, Copyright (c) 2014 by Type Dynamic. All rights reserved.</metadata><defs><font id="Sailec-Bold" horiz-adv-x="1232"><font-face x-height="1059" ascent="1536" bbox="-223 -543 2353 2064" cap-height="1532" descent="-512" font-family="Sailec" font-stretch="normal" font-weight="700" panose-1="0 0 8 0 0 0 0 0 0 0" underline-position="-918" underline-thickness="102" unicode-range="U+000D-FB02" units-per-em="2048"/><glyph d="M10 801v258h193v108q0 199 120 318t320 119q51 0 105 -7v-258q-36 4 -70 4q-78 0 -128 -46t-50 -121v-117h245v-258h-245v-801h-297v801h-193zM897 1405q0 75 52.5 127.5t125.5 52.5q75 0 127.5 -52.5t52.5 -127.5q0 -74 -52.5 -126t-127.5 -52t-126.5 52t-51.5 126z M926 0v1059h299v-1059h-299z" glyph-name="uniFB01" horiz-adv-x="1372" unicode="fi"/><glyph d="M68 0v1365h544v-1365h-544zM136 68h408v1229h-408v-1229z" glyph-name=".notdef" horiz-adv-x="748"/><glyph glyph-name=".null" horiz-adv-x="0"/><glyph glyph-name="uni000D" horiz-adv-x="1228"/><glyph glyph-name="space" horiz-adv-x="462"/><glyph d="M150 158q0 76 52.5 129t127.5 53t128.5 -53t53.5 -129q0 -75 -53.5 -128t-128.5 -53t-127.5 53t-52.5 128zM156 1532h350l-19 -1065h-315z" glyph-name="exclam" horiz-adv-x="663" unicode="!"/><glyph d="M84 1546h287l-31 -577h-227zM487 1546h287l-29 -577h-229z" glyph-name="quotedbl" horiz-adv-x="858" unicode="&quot;"/><glyph d="M12 369l56 237h215l71 309h-217l58 238h217l92 379h250l-92 -379h227l92 379h250l-90 -379h217l-58 -238h-217l-73 -309h221l-55 -237h-222l-88 -369h-250l89 369h-230l-86 -369h-252l88 369h-213zM532 606h228l74 309h-230z" glyph-name="numbersign" horiz-adv-x="1370" unicode="#"/><glyph d="M92 469l322 16q4 -104 86 -168.5t207 -64.5q112 0 176.5 43t64.5 133q0 82 -72.5 125.5t-242.5 85.5q-68 17 -115.5 31t-104.5 36t-95.5 44.5t-77.5 56t-61.5 72.5t-37 91.5t-14.5 114.5q0 178 113 306.5t325 156.5v224h248v-230q193 -33 307.5 -153.5t118.5 -305.5 l-324 -16q-2 97 -65.5 155t-171.5 58q-107 0 -167 -50.5t-60 -133.5t63.5 -121t235.5 -78q102 -26 175.5 -51.5t142 -63t110.5 -83t67 -109.5t25 -144q0 -205 -125.5 -321t-331.5 -141v-226h-248v230q-215 32 -342.5 156t-130.5 325z" glyph-name="dollar" horiz-adv-x="1357" unicode="$"/><glyph d="M63 1169q0 173 102 279t261 106q158 0 259 -106t101 -279q0 -172 -101 -278.5t-259 -106.5t-260.5 106.5t-102.5 278.5zM264 0l1010 1532h289l-1010 -1532h-289zM283 1169q0 -83 39 -130.5t104 -47.5q64 0 102.5 47t38.5 131t-38 130.5t-103 46.5t-104 -46.5t-39 -130.5z M1040 365q0 173 102 278t261 105t259.5 -105t100.5 -278t-101 -280.5t-259 -107.5t-260.5 107.5t-102.5 280.5zM1260 365q0 -84 39 -131.5t104 -47.5t103 47t38 132q0 83 -38 129.5t-103 46.5q-66 0 -104.5 -46.5t-38.5 -129.5z" glyph-name="percent" horiz-adv-x="1826" unicode="%"/><glyph d="M80 422q0 137 61.5 235.5t177.5 182.5q-120 138 -120 286q0 207 129.5 317.5t345.5 110.5q191 0 319.5 -103t155.5 -286l-305 -24q-22 151 -170 151q-75 0 -117.5 -42t-42.5 -120q0 -18 2.5 -34.5t11 -33.5t13.5 -28.5t21 -29.5t22.5 -26t28 -27.5t28 -25t32.5 -27 t32 -26.5l323 -270q38 91 76 244l278 -72q-53 -198 -131 -358l252 -211l-176 -228l-240 201q-186 -198 -464 -198q-262 0 -402.5 124.5t-140.5 317.5zM401 451q0 -95 60.5 -149t165.5 -54q142 0 250 108l-371 312q-105 -84 -105 -217z" glyph-name="ampersand" horiz-adv-x="1474" unicode="&amp;"/><glyph d="M84 1546h287l-31 -577h-227z" glyph-name="quotesingle" horiz-adv-x="454" unicode="'"/><glyph d="M76 655q0 251 66 466.5t177 383.5l259 -90q-205 -355 -205 -760q0 -404 205 -759l-259 -91q-111 168 -177 383.5t-66 466.5z" glyph-name="parenleft" horiz-adv-x="610" unicode="("/><glyph d="M35 -104q203 357 203 759q0 403 -203 760l258 90q111 -169 177.5 -384.5t66.5 -465.5t-66.5 -465.5t-177.5 -384.5z" glyph-name="parenright" horiz-adv-x="610" unicode=")"/><glyph d="M14 1241l52 156l235 -82l-6 250h166l-6 -250l235 82l51 -156l-237 -76l149 -194l-133 -99l-141 203l-143 -205l-134 101l150 194z" glyph-name="asterisk" horiz-adv-x="755" unicode="*"/><glyph d="M63 623v270h353v360h291v-360h352v-270h-352v-365h-291v365h-353z" glyph-name="plus" horiz-adv-x="1122" unicode="+"/><glyph d="M78 158q0 76 50 129t126 53q78 0 123 -55.5t45 -145.5q0 -309 -313 -469v125q107 67 137 185q-71 5 -119.5 55.5t-48.5 122.5z" glyph-name="comma" horiz-adv-x="499" unicode=","/><glyph d="M92 397v279h647v-279h-647z" glyph-name="hyphen" horiz-adv-x="831" unicode="-"/><glyph d="M78 158q0 76 52.5 129t127.5 53t128.5 -53t53.5 -129q0 -75 -53.5 -128t-128.5 -53t-127.5 53t-52.5 128z" glyph-name="period" horiz-adv-x="518" unicode="."/><glyph d="M14 -137l523 1669h311l-520 -1669h-314z" glyph-name="slash" horiz-adv-x="862" unicode="/"/><glyph d="M86 766q0 375 159 581.5t423 206.5q261 0 420 -207t159 -581q0 -373 -159 -581t-420 -208q-264 0 -423 207.5t-159 581.5zM408 766q0 -508 260 -508q258 0 258 508t-258 508q-260 0 -260 -508z" glyph-name="zero" horiz-adv-x="1333" unicode="0"/><glyph d="M0 1247l418 285h231v-1532h-315v1135l-195 -138z" glyph-name="one" horiz-adv-x="804" unicode="1"/><glyph d="M98 1077q3 224 126.5 350.5t344.5 126.5q223 0 346 -113t123 -323q0 -90 -21 -171t-64 -153t-84.5 -124.5t-104.5 -120.5l-252 -268h535v-281h-947v248l422 465q116 126 157.5 204t41.5 187q0 80 -38.5 125t-107.5 45q-83 0 -121 -54.5t-40 -160.5z" glyph-name="two" horiz-adv-x="1110" unicode="2"/><glyph d="M72 444l315 19q5 -98 52 -151.5t136 -53.5t137 53t48 150q0 95 -55 143.5t-148 48.5h-158v271h154q79 0 129.5 47.5t50.5 130.5q0 85 -41 128.5t-117 43.5q-77 0 -121 -49.5t-48 -141.5l-314 17q5 213 130 333.5t353 120.5q225 0 350.5 -121t125.5 -327q0 -117 -45 -191 t-123 -124q85 -32 139.5 -121t54.5 -215q0 -221 -137.5 -349.5t-361.5 -128.5q-239 0 -369.5 124.5t-136.5 342.5z" glyph-name="three" horiz-adv-x="1163" unicode="3"/><glyph d="M55 268v260l656 1004h250v-983h227v-281h-227v-268h-285v268h-621zM377 549h297v452z" glyph-name="four" horiz-adv-x="1234" unicode="4"/><glyph d="M76 424l315 18q5 -87 51.5 -135.5t132.5 -48.5q93 0 143 60t50 161q0 100 -49 156.5t-135 56.5q-92 0 -164 -53h-293v893h899v-279h-584v-315q72 35 172 35q208 0 339.5 -127.5t131.5 -358.5q0 -233 -138.5 -371.5t-373.5 -138.5q-229 0 -360 121t-137 326z" glyph-name="five" horiz-adv-x="1167" unicode="5"/><glyph d="M84 492q0 168 113 329l499 711h379l-381 -531q208 -21 339.5 -159.5t131.5 -349.5q0 -153 -70 -271t-192 -181t-276 -63q-236 0 -389.5 142.5t-153.5 372.5zM406 502q0 -112 60 -178t159 -66t160 66t61 178t-60.5 175.5t-160.5 63.5q-116 0 -176 -82q-43 -58 -43 -157z" glyph-name="six" horiz-adv-x="1245" unicode="6"/><glyph d="M39 1253v279h1008v-254l-598 -1278h-347l598 1253h-661z" glyph-name="seven" horiz-adv-x="1107" unicode="7"/><glyph d="M94 455q0 118 49 210.5t136 151.5q-146 107 -146 305q0 132 64.5 231t176 150t253.5 51q217 0 357 -117t140 -315q0 -195 -147 -303q88 -59 137 -151.5t49 -212.5q0 -145 -70 -254.5t-190.5 -166.5t-273.5 -57q-234 0 -384.5 130t-150.5 348zM410 469q0 -97 62 -154 t157 -57q96 0 157.5 56.5t61.5 154.5q0 97 -61.5 153t-157.5 56q-95 0 -157 -56t-62 -153zM449 1100q0 -76 51.5 -122t128.5 -46q79 0 129.5 45.5t50.5 122.5q0 81 -50 127.5t-130 46.5q-78 0 -129 -46.5t-51 -127.5z" glyph-name="eight" horiz-adv-x="1259" unicode="8"/><glyph d="M80 1040q0 230 151.5 372t386.5 142q236 0 389.5 -142t153.5 -372q0 -94 -28 -171.5t-84 -157.5l-500 -711h-379l381 530q-208 21 -339.5 160t-131.5 350zM399 1030q0 -112 61 -175.5t161 -63.5q116 0 176 81q43 58 43 158q0 112 -60 178t-159 66t-160.5 -66.5 t-61.5 -177.5z" glyph-name="nine" horiz-adv-x="1245" unicode="9"/><glyph d="M61 158q0 76 53 129t128 53t128.5 -53t53.5 -129q0 -75 -53.5 -128t-128.5 -53t-128 53t-53 128zM61 897q0 76 53 129t128 53t128.5 -53t53.5 -129q0 -73 -53.5 -125.5t-128.5 -52.5t-128 52t-53 126z" glyph-name="colon" horiz-adv-x="518" unicode=":"/><glyph d="M61 897q0 76 53 129t128 53t128.5 -53t53.5 -129q0 -73 -53.5 -125.5t-128.5 -52.5t-128 52t-53 126zM78 158q0 76 50 129t126 53q78 0 123 -55.5t45 -145.5q0 -309 -313 -469v125q107 67 137 185q-71 5 -119.5 55.5t-48.5 122.5z" glyph-name="semicolon" horiz-adv-x="518" unicode=";"/><glyph d="M59 756l979 544v-337l-395 -207l395 -207v-340z" glyph-name="less" horiz-adv-x="1101" unicode="&lt;"/><glyph d="M63 367v280h996v-280h-996zM63 868v281h996v-281h-996z" glyph-name="equal" horiz-adv-x="1122" unicode="="/><glyph d="M63 209v340l396 207l-396 207v337l979 -544z" glyph-name="greater" horiz-adv-x="1101" unicode="&gt;"/><glyph d="M33 1094q7 210 148.5 336t367.5 126q236 0 374 -125t138 -339q0 -61 -15.5 -111.5t-48 -93t-61.5 -70t-76 -65.5q-80 -64 -116.5 -110.5t-36.5 -109.5v-65h-316v78q0 47 15 90t45 82.5t60.5 69.5t76.5 69q75 63 113 114t38 117q0 88 -50.5 139.5t-139.5 51.5 q-90 0 -143.5 -54.5t-57.5 -150.5zM369 158q0 76 52 129t126 53q75 0 128.5 -53t53.5 -129q0 -75 -53.5 -128t-128.5 -53q-74 0 -126 53t-52 128z" glyph-name="question" horiz-adv-x="1095" unicode="?"/><glyph d="M78 506q0 210 94.5 378t264.5 263.5t384 95.5q213 0 384 -95.5t266.5 -264t95.5 -377.5q0 -211 -87 -319.5t-241 -108.5q-157 0 -211 104q-96 -110 -260 -110q-174 0 -282.5 119t-108.5 313q0 196 108.5 315t282.5 119q83 0 145 -26.5t95 -67.5v63h217v-594q0 -80 71 -80 q57 0 92 69.5t35 203.5q0 126 -46 238t-125 191.5t-191 126t-240 46.5q-171 0 -308.5 -79t-214.5 -216.5t-77 -306.5q0 -134 48 -248t129 -190t187.5 -119t223.5 -43q212 0 367 90l47 -133q-87 -49 -183.5 -71.5t-230.5 -22.5q-202 0 -368.5 92t-264.5 261.5t-98 383.5z M610 504q0 -109 53 -170.5t142 -61.5q87 0 139.5 57.5t52.5 157.5v35q0 100 -52.5 156.5t-139.5 56.5q-90 0 -142.5 -60.5t-52.5 -170.5z" glyph-name="at" horiz-adv-x="1644" unicode="@"/><glyph d="M16 0l658 1532h266l659 -1532h-348l-125 295h-637l-127 -295h-346zM602 553h414l-207 489z" glyph-name="A" horiz-adv-x="1615" unicode="A"/><glyph d="M154 0v1532h641q216 0 346.5 -108.5t130.5 -317.5q0 -104 -40.5 -179.5t-109.5 -121.5q94 -36 153.5 -128.5t59.5 -230.5q0 -214 -135 -330t-360 -116h-686zM469 281h334q97 0 153 44.5t56 137.5q0 94 -56 140t-149 46h-338v-368zM469 918h305q176 0 176 165 q0 85 -51 127.5t-141 42.5h-289v-335z" glyph-name="B" horiz-adv-x="1445" unicode="B"/><glyph d="M100 766q0 243 101.5 423t277 272.5t400.5 92.5q283 0 484.5 -158t242.5 -425l-330 -29q-32 161 -139.5 246.5t-268.5 85.5q-202 0 -324 -138t-122 -370q0 -122 34.5 -219t95 -160t142 -96t176.5 -33q160 0 268 84.5t138 241.5l332 -29q-44 -265 -244.5 -421.5 t-482.5 -156.5q-225 0 -401 93t-278 273.5t-102 422.5z" glyph-name="C" horiz-adv-x="1691" unicode="C"/><glyph d="M154 0v1532h630q219 0 390 -90t270.5 -265.5t99.5 -410.5t-100 -410.5t-271.5 -265.5t-390.5 -90h-628zM469 270h317q205 0 325 127t120 369t-119.5 369t-325.5 127h-317v-992z" glyph-name="D" horiz-adv-x="1644" unicode="D"/><glyph d="M154 0v1532h983v-279h-666v-331h578v-273h-578v-368h668v-281h-985z" glyph-name="E" unicode="E"/><glyph d="M154 0v1532h983v-279h-666v-331h543v-279h-543v-643h-317z" glyph-name="F" horiz-adv-x="1204" unicode="F"/><glyph d="M100 766q0 243 101.5 423t276.5 272.5t399 92.5q269 0 462 -138.5t254 -387.5l-327 -55q-33 141 -135 221t-257 80q-211 0 -331.5 -129.5t-120.5 -378.5t121 -378.5t331 -129.5q148 0 251 73.5t137 225.5h-385v279h731v-103q0 -225 -88 -396t-253.5 -265.5t-387.5 -94.5 q-167 0 -310 54.5t-247 154t-163 249t-59 331.5z" glyph-name="G" horiz-adv-x="1708" unicode="G"/><glyph d="M154 0v1532h317v-606h621v606h315v-1532h-315v645h-621v-645h-317z" glyph-name="H" horiz-adv-x="1560" unicode="H"/><glyph d="M154 0v1532h317v-1532h-317z" glyph-name="I" horiz-adv-x="624" unicode="I"/><glyph d="M37 494l317 51q8 -136 66 -211.5t158 -75.5q108 0 164.5 71t56.5 208v995h315v-985q0 -268 -143.5 -419t-395.5 -151q-237 0 -381 137t-157 380z" glyph-name="J" horiz-adv-x="1257" unicode="J"/><glyph d="M154 0v1532h317v-633l520 633h406l-527 -627l588 -905h-373l-426 651l-188 -227v-424h-317z" glyph-name="K" horiz-adv-x="1476" unicode="K"/><glyph d="M154 0v1532h317v-1251h668v-281h-985z" glyph-name="L" horiz-adv-x="1210" unicode="L"/><glyph d="M154 0v1532h280l565 -1053l562 1053h278v-1532h-313v827l-422 -811h-209l-424 811v-827h-317z" glyph-name="M" horiz-adv-x="1994" unicode="M"/><glyph d="M154 0v1532h268l674 -950v950h315v-1532h-268l-672 948v-948h-317z" glyph-name="N" horiz-adv-x="1564" unicode="N"/><glyph d="M100 766q0 177 60 325.5t165.5 249.5t252.5 157t319 56q170 0 316.5 -56t252.5 -157t166 -249.5t60 -325.5q0 -236 -103.5 -416.5t-283.5 -276.5t-408 -96q-230 0 -410.5 96t-283.5 276.5t-103 416.5zM422 766q0 -234 131 -371t344 -137q210 0 340.5 137.5t130.5 370.5 q0 234 -130.5 371t-340.5 137q-214 0 -344.5 -136.5t-130.5 -371.5z" glyph-name="O" horiz-adv-x="1792" unicode="O"/><glyph d="M154 0v1532h663q223 0 358.5 -131t135.5 -363t-135.5 -362.5t-358.5 -130.5h-346v-545h-317zM469 825h307q95 0 154 56t59 157q0 102 -59 158.5t-154 56.5h-307v-428z" glyph-name="P" horiz-adv-x="1366" unicode="P"/><glyph d="M100 766q0 177 60 325.5t165.5 249.5t252.5 157t319 56q170 0 316.5 -56t252.5 -157t166 -249.5t60 -325.5q0 -275 -142 -475l230 -225l-221 -226l-242 240q-189 -103 -420 -103q-230 0 -410.5 96t-283.5 276.5t-103 416.5zM422 766q0 -234 131 -371t344 -137 q109 0 201 39l-232 229l221 222l232 -230q49 107 49 248q0 234 -130.5 371t-340.5 137q-214 0 -344.5 -136.5t-130.5 -371.5z" glyph-name="Q" horiz-adv-x="1800" unicode="Q"/><glyph d="M154 0v1532h655q223 0 358.5 -130t135.5 -362q0 -157 -65 -269t-181 -169l325 -602h-356l-299 551h-256v-551h-317zM469 831h301q95 0 153 55t58 154q0 102 -58 157.5t-153 55.5h-301v-422z" glyph-name="R" horiz-adv-x="1447" unicode="R"/><glyph d="M92 469l322 16q4 -104 86 -168.5t207 -64.5q112 0 176.5 43t64.5 133q0 82 -72.5 125.5t-242.5 85.5q-68 17 -115.5 31t-104.5 36t-95.5 44.5t-77.5 56t-61.5 72.5t-37 91.5t-14.5 114.5q0 96 34 180t100 149t171.5 102.5t239.5 37.5q252 0 406.5 -126t160.5 -345 l-324 -16q-2 97 -65.5 155t-171.5 58q-107 0 -167 -50.5t-60 -133.5t63.5 -121t235.5 -78q102 -26 175.5 -51.5t142 -63t110.5 -83t67 -109.5t25 -144q0 -119 -44.5 -210.5t-122.5 -147t-178 -83.5t-218 -28q-273 0 -442.5 130t-172.5 362z" glyph-name="S" horiz-adv-x="1357" unicode="S"/><glyph d="M39 1253v279h1341v-279h-512v-1253h-315v1253h-514z" glyph-name="T" horiz-adv-x="1419" unicode="T"/><glyph d="M143 623v909h316v-905q0 -180 86 -274.5t252 -94.5q163 0 249.5 94.5t86.5 274.5v905h315v-909q0 -305 -174 -475.5t-477 -170.5q-306 0 -480 170t-174 476z" glyph-name="U" horiz-adv-x="1591" unicode="U"/><glyph d="M25 1532h346l432 -1040l430 1040h348l-645 -1532h-266z" glyph-name="V" horiz-adv-x="1603" unicode="V"/><glyph d="M25 1532h344l327 -995l326 995h260l328 -995l325 995h344l-534 -1532h-266l-326 971l-326 -971h-268z" glyph-name="W" horiz-adv-x="2304" unicode="W"/><glyph d="M37 0l473 778l-447 754h365l317 -543l316 543h364l-446 -754l473 -778h-367l-340 569l-342 -569h-366z" glyph-name="X" horiz-adv-x="1488" unicode="X"/><glyph d="M25 1532h366l371 -629l371 629h368l-579 -942v-590h-316v590z" glyph-name="Y" horiz-adv-x="1523" unicode="Y"/><glyph d="M76 0v240l708 1013h-698v279h1106v-240l-713 -1011h733v-281h-1136z" glyph-name="Z" horiz-adv-x="1282" unicode="Z"/><glyph d="M109 -158v1628h479v-247h-182v-1133h182v-248h-479z" glyph-name="bracketleft" horiz-adv-x="628" unicode="["/><glyph d="M14 1532h312l522 -1669h-311z" glyph-name="backslash" horiz-adv-x="862" unicode="\"/><glyph d="M43 90h180v1133h-180v247h479v-1628h-479v248z" glyph-name="bracketright" horiz-adv-x="628" unicode="]"/><glyph d="M55 762l555 807l555 -807h-338l-217 342l-217 -342h-338z" glyph-name="asciicircum" horiz-adv-x="1220" unicode="^"/><glyph d="M92 0h1225v-281h-1225v281z" glyph-name="underscore" horiz-adv-x="1409" unicode="_"/><glyph d="M18 1616h340l170 -391h-231z" glyph-name="grave" horiz-adv-x="548" unicode="`"/><glyph d="M90 291q0 302 424 321l188 11v41q0 163 -137 163q-72 0 -109.5 -40.5t-37.5 -98.5l-299 12q0 70 31.5 137.5t87 121.5t140.5 87t183 33q214 0 327 -108.5t113 -317.5v-653h-288v86q-105 -109 -271 -109q-163 0 -257.5 81.5t-94.5 232.5zM389 305q0 -96 123 -96 q85 0 137.5 45t52.5 127v45l-159 -10q-154 -7 -154 -111z" glyph-name="a" horiz-adv-x="1140" unicode="a"/><glyph d="M147 0v1591h299v-624q43 50 121.5 81t175.5 31q227 0 369.5 -151t142.5 -400q0 -248 -142.5 -399.5t-369.5 -151.5q-105 0 -187 37t-126 95v-109h-283zM446 506q0 -127 69 -198.5t181 -71.5q115 0 185.5 77t70.5 215t-70.5 216.5t-185.5 78.5q-112 0 -181 -72t-69 -198 v-47z" glyph-name="b" horiz-adv-x="1345" unicode="b"/><glyph d="M90 528q0 256 151.5 403.5t391.5 147.5q197 0 335 -110t167 -299l-293 -25q-11 82 -67 130t-142 48q-107 0 -173.5 -78.5t-66.5 -216.5q0 -137 66.5 -214.5t173.5 -77.5q87 0 143 46t68 126l291 -27q-30 -186 -167.5 -295t-334.5 -109q-239 0 -391 148.5t-152 402.5z" glyph-name="c" horiz-adv-x="1212" unicode="c"/><glyph d="M90 528q0 249 142 400t368 151q99 0 177.5 -31t121.5 -81v624h297v-1591h-281v109q-44 -58 -126 -95t-189 -37q-226 0 -368 152t-142 399zM393 528q0 -138 70.5 -215t185.5 -77q112 0 181 71.5t69 198.5v47q0 126 -69 198t-181 72q-115 0 -185.5 -78.5t-70.5 -216.5z" glyph-name="d" horiz-adv-x="1345" unicode="d"/><glyph d="M90 528q0 253 149.5 402t389.5 149q231 0 368.5 -140.5t137.5 -385.5v-119h-727q5 -99 63 -157t158 -58q77 0 127 30.5t67 86.5l301 -14q-28 -151 -164.5 -248t-322.5 -97q-245 0 -396 149t-151 402zM408 633h426q-5 100 -57 156.5t-150 56.5q-96 0 -154.5 -56 t-64.5 -157z" glyph-name="e" horiz-adv-x="1224" unicode="e"/><glyph d="M10 801v258h193v108q0 199 120 318t320 119q51 0 105 -7v-258q-36 4 -70 4q-78 0 -128 -46t-50 -121v-117h245v-258h-245v-801h-297v801h-193z" glyph-name="f" horiz-adv-x="778" unicode="f"/><glyph d="M90 528q0 247 142 399t368 152q108 0 189.5 -36t125.5 -95v111h281v-1098q0 -229 -145 -366.5t-389 -137.5q-241 0 -377.5 109.5t-167.5 298.5l297 10q11 -77 73.5 -120.5t163.5 -43.5q114 0 181 58.5t67 169.5v151q-46 -49 -124 -81t-175 -32q-226 0 -368 152t-142 399z M393 528q0 -138 70.5 -216.5t185.5 -78.5q112 0 181 72.5t69 198.5v49q0 126 -69 198t-181 72q-115 0 -185.5 -78.5t-70.5 -216.5z" glyph-name="g" horiz-adv-x="1327" unicode="g"/><glyph d="M147 0v1591h299v-622q87 110 269 110q186 0 299.5 -115t113.5 -317v-647h-299v590q0 100 -49.5 155.5t-136.5 55.5q-89 0 -143 -58.5t-54 -154.5v-588h-299z" glyph-name="h" horiz-adv-x="1261" unicode="h"/><glyph d="M119 1405q0 75 52.5 127.5t125.5 52.5q75 0 127.5 -52.5t52.5 -127.5q0 -74 -52.5 -126t-127.5 -52t-126.5 52t-51.5 126zM147 0v1059h299v-1059h-299z" glyph-name="i" horiz-adv-x="595" unicode="i"/><glyph d="M-94 -270q27 -6 69 -6q77 0 126 45.5t49 121.5v1168h299v-1161q0 -199 -120 -317t-319 -118q-50 0 -104 7v260zM119 1405q0 75 51.5 127.5t126.5 52.5t127.5 -52.5t52.5 -127.5q0 -74 -52.5 -126t-127.5 -52t-126.5 52t-51.5 126z" glyph-name="j" horiz-adv-x="595" unicode="j"/><glyph d="M147 0v1591h299v-909l342 377h363l-399 -453l428 -606h-363l-276 383l-95 -102v-281h-299z" glyph-name="k" horiz-adv-x="1191" unicode="k"/><glyph d="M147 0v1591h299v-1591h-299z" glyph-name="l" horiz-adv-x="595" unicode="l"/><glyph d="M147 0v1059h283v-109q82 129 279 129q223 0 331 -168q107 168 326 168q183 0 292 -115.5t109 -314.5v-649h-299v590q0 102 -45 156.5t-131 54.5q-78 0 -126.5 -47.5t-57.5 -128.5v-625h-299v590q0 101 -45 156t-127 55q-88 0 -139.5 -58.5t-51.5 -154.5v-588h-299z" glyph-name="m" horiz-adv-x="1904" unicode="m"/><glyph d="M147 0v1059h283v-109q37 59 109.5 94t175.5 35q186 0 299.5 -115t113.5 -317v-647h-299v590q0 100 -49.5 155.5t-136.5 55.5q-89 0 -143 -58.5t-54 -154.5v-588h-299z" glyph-name="n" horiz-adv-x="1265" unicode="n"/><glyph d="M90 528q0 164 73 290t201 193.5t289 67.5q246 0 405 -152t159 -399q0 -246 -159 -398.5t-405 -152.5t-404.5 152.5t-158.5 398.5zM393 528q0 -136 71.5 -214t188.5 -78t188.5 78t71.5 214q0 137 -71.5 216t-188.5 79t-188.5 -79t-71.5 -216z" glyph-name="o" horiz-adv-x="1306" unicode="o"/><glyph d="M147 -522v1581h283v-111q43 58 125 94.5t188 36.5q227 0 369.5 -151.5t142.5 -399.5t-142.5 -399.5t-369.5 -151.5q-96 0 -174.5 32t-122.5 81v-612h-299zM446 504q0 -126 69 -198.5t181 -72.5q115 0 185.5 78.5t70.5 216.5t-70.5 216.5t-185.5 78.5q-112 0 -181 -72 t-69 -198v-49z" glyph-name="p" horiz-adv-x="1345" unicode="p"/><glyph d="M90 528q0 247 142 399t368 152q108 0 189.5 -36t125.5 -95v111h281v-1581h-297v612q-44 -49 -122.5 -81t-176.5 -32q-226 0 -368 152t-142 399zM393 528q0 -138 70.5 -216.5t185.5 -78.5q112 0 181 72.5t69 198.5v49q0 126 -69 198t-181 72q-115 0 -185.5 -78.5 t-70.5 -216.5z" glyph-name="q" horiz-adv-x="1345" unicode="q"/><glyph d="M147 0v1059h289v-121q84 131 291 131v-289q-128 0 -204.5 -67t-76.5 -176v-537h-299z" glyph-name="r" horiz-adv-x="774" unicode="r"/><glyph d="M68 322l299 16q3 -61 41 -96t112 -35q62 0 97.5 25.5t35.5 70.5q0 47 -37.5 70t-154.5 51q-57 14 -92.5 24.5t-79.5 26t-70.5 31.5t-55 39.5t-43.5 51t-24.5 65t-9.5 83.5q0 153 113 243.5t311 90.5q194 0 304 -94t124 -248l-297 -16q-7 129 -135 129q-59 0 -90 -23.5 t-31 -66.5q0 -12 2.5 -22t9.5 -18.5t13 -15t19.5 -13t23.5 -10.5t29.5 -9.5t32 -9t37.5 -9.5t40 -10q70 -18 119 -35t98 -43t78 -57.5t47 -76t18 -101.5q0 -163 -114.5 -258t-319.5 -95q-202 0 -317.5 89.5t-132.5 255.5z" glyph-name="s" horiz-adv-x="1036" unicode="s"/><glyph d="M23 801v258h194l2 350h299l-2 -350h248v-258h-250l-2 -393q0 -82 45 -121t115 -39q35 0 92 10v-266q-86 -12 -166 -12q-179 0 -282.5 89t-102.5 267l2 465h-192z" glyph-name="t" horiz-adv-x="827" unicode="t"/><glyph d="M137 393v666h299v-602q0 -201 170 -201q84 0 132 57t48 148v598h299v-1059h-282v106q-80 -129 -275 -129q-183 0 -287 111t-104 305z" glyph-name="u" unicode="u"/><glyph d="M10 1059h330l248 -623l246 623h329l-456 -1059h-240z" glyph-name="v" horiz-adv-x="1173" unicode="v"/><glyph d="M10 1059h328l207 -606l217 606h209l219 -606l207 606h327l-407 -1059h-238l-213 561l-213 -561h-237z" glyph-name="w" horiz-adv-x="1732" unicode="w"/><glyph d="M25 0l329 535l-325 524h340l196 -324l197 324h340l-328 -524l336 -535h-342l-203 330l-200 -330h-340z" glyph-name="x" horiz-adv-x="1132" unicode="x"/><glyph d="M14 1059h330l244 -631l241 631h332l-678 -1581h-325l270 616z" glyph-name="y" horiz-adv-x="1173" unicode="y"/><glyph d="M70 0v197l434 620h-426v242h770v-199l-432 -618h448v-242h-794z" glyph-name="z" horiz-adv-x="931" unicode="z"/><glyph d="M35 535v243h16q41 0 65 8t36.5 21t13 41.5t-4 56.5t-16.5 80q-24 124 -4.5 215t79.5 151t147 89.5t198 29.5h13v-247h-13q-93 0 -120.5 -58.5t-4.5 -208.5q10 -79 9 -142.5t-37.5 -106t-110.5 -50.5q74 -9 110.5 -52t37.5 -106.5t-9 -142.5q-23 -150 4.5 -208t120.5 -58 h13v-248h-13q-111 0 -198.5 29.5t-147 89.5t-79 151.5t4.5 215.5q12 52 16.5 80t4 56.5t-13 41.5t-36.5 21t-65 8h-16z" glyph-name="braceleft" horiz-adv-x="620" unicode="{"/><glyph d="M145 -137v1669h299v-1669h-299z" glyph-name="bar" horiz-adv-x="589" unicode="|"/><glyph d="M43 90h12q93 0 120.5 58t4.5 208q-10 79 -9 142.5t37 106.5t109 52q-73 8 -109 50.5t-37 106t9 142.5q23 150 -4.5 208.5t-120.5 58.5h-12v247h12q111 0 198 -29.5t147 -89.5t79.5 -151t-4.5 -215q-12 -52 -16.5 -80t-4 -56.5t13 -41.5t36.5 -21t65 -8h17v-243h-17 q-41 0 -65 -8t-36.5 -21t-13 -41.5t4 -56.5t16.5 -80q24 -124 4.5 -215.5t-79 -151.5t-147 -89.5t-198.5 -29.5h-12v248z" glyph-name="braceright" horiz-adv-x="620" unicode="}"/><glyph d="M20 770q71 92 150 139t178 47q53 0 106.5 -18t90 -40t87.5 -40t101 -18q73 0 124.5 24.5t100.5 83.5l136 -196q-72 -93 -151.5 -142t-178.5 -49q-57 0 -112.5 18.5t-92 40t-86 40t-96.5 18.5q-72 0 -122 -24t-99 -83z" glyph-name="asciitilde" horiz-adv-x="1114" unicode="~"/><glyph glyph-name="uni00A0" horiz-adv-x="462"/><glyph d="M152 866q0 75 53.5 128t128.5 53q74 0 126 -53t52 -128q0 -76 -52 -129t-126 -53q-75 0 -128.5 53t-53.5 129zM158 -508l16 1065h315l17 -1065h-348z" glyph-name="exclamdown" horiz-adv-x="663" unicode="¡"/><glyph d="M90 528q0 218 111 359t299 180v217h248v-215q155 -30 259 -134.5t128 -264.5l-293 -25q-11 82 -67 130t-142 48q-107 0 -173.5 -78.5t-66.5 -216.5q0 -137 66.5 -214.5t173.5 -77.5q87 0 143 46t68 126l291 -27q-26 -156 -129.5 -259.5t-257.5 -133.5v-230h-248v234 q-186 38 -298 179t-112 357z" glyph-name="cent" horiz-adv-x="1212" unicode="¢"/><glyph d="M55 627v247h170l-12 130q-27 262 86.5 406t355.5 144q210 0 324.5 -111.5t120.5 -309.5l-316 -17q0 73 -35 115.5t-100 42.5q-79 0 -114.5 -55.5t-26.5 -157.5l16 -187h307v-247h-282v-11q11 -117 -18 -196.5t-91 -138.5h674v-281h-1057v258q123 25 164 110t27 255v4 h-193z" glyph-name="sterling" horiz-adv-x="1159" unicode="£"/><glyph d="M37 98l231 232q-39 83 -39 186t39 189l-231 231l188 188l232 -231q78 33 159 33q79 0 160 -33l230 231l188 -188l-231 -231q38 -84 38 -189q0 -109 -36 -188l229 -230l-188 -186l-228 227q-70 -30 -162 -30q-84 0 -159 32l-232 -229zM473 516q0 -94 38 -145.5t105 -51.5 q65 0 103.5 53.5t38.5 143.5q0 92 -38.5 144.5t-103.5 52.5q-66 0 -104.5 -52.5t-38.5 -144.5z" glyph-name="currency" horiz-adv-x="1230" unicode="¤"/><glyph d="M25 1532h366l371 -629l371 629h368l-495 -807h188v-184h-272v-135h272v-187h-272v-219h-316v219h-274v187h274v135h-274v184h190z" glyph-name="yen" horiz-adv-x="1523" unicode="¥"/><glyph d="M145 -137v653h299v-653h-299zM145 879v653h299v-653h-299z" glyph-name="brokenbar" horiz-adv-x="589" unicode="¦"/><glyph d="M63 737q0 85 36.5 142.5t105.5 101.5q-111 78 -111 231q0 154 117.5 248t316.5 94q210 0 326.5 -87.5t118.5 -239.5l-297 -10q-3 118 -146 118q-65 0 -101 -27t-36 -81q0 -49 40 -74.5t153 -52.5q112 -23 184.5 -47t132.5 -61t87.5 -90t27.5 -128q0 -84 -34.5 -140.5 t-100.5 -101.5q121 -76 121 -237q0 -157 -124 -254.5t-335 -97.5q-221 0 -346 92.5t-125 251.5l299 12q0 -64 44.5 -101.5t129.5 -37.5q73 0 115.5 30.5t42.5 85.5q0 52 -44 79.5t-163 54.5q-87 18 -147.5 35.5t-118.5 44t-92.5 59t-55.5 80t-21 108.5zM338 766 q0 -60 60 -87.5t212 -57.5l47 -11q44 30 65 58.5t21 74.5q0 61 -59 88.5t-213 57.5l-47 10q-43 -30 -64.5 -59.5t-21.5 -73.5z" glyph-name="section" horiz-adv-x="1083" unicode="§"/><glyph d="M20 1391q0 66 47.5 112.5t114.5 46.5q68 0 116 -46.5t48 -112.5q0 -68 -48 -115t-116 -47t-115 46.5t-47 115.5zM416 1391q0 66 47.5 112.5t114.5 46.5t114 -46.5t47 -112.5q0 -69 -46.5 -115.5t-114.5 -46.5t-115 46.5t-47 115.5z" glyph-name="dieresis" horiz-adv-x="759" unicode="¨"/><glyph d="M55 1034q0 225 157.5 375t397.5 150q236 0 394.5 -150.5t158.5 -374.5t-158.5 -374t-394.5 -150q-158 0 -285.5 68.5t-198.5 188t-71 267.5zM172 1034q0 -185 122 -303.5t316 -118.5q192 0 314.5 118.5t122.5 303.5t-122.5 303.5t-314.5 118.5q-194 0 -316 -118.5 t-122 -303.5zM297 1038q0 148 88.5 234t226.5 86q115 0 196.5 -64.5t98.5 -173.5l-170 -10q-9 50 -43 77t-86 27q-65 0 -104 -47.5t-39 -128.5q0 -83 41 -129.5t104 -46.5q50 0 84 27t43 76l170 -13q-19 -108 -99.5 -171.5t-195.5 -63.5q-138 0 -226.5 86.5t-88.5 234.5z" glyph-name="copyright" horiz-adv-x="1218" unicode="©"/><glyph d="M63 913q0 241 369 263l133 8v43q0 50 -27 79t-77 29q-55 0 -85 -30.5t-30 -75.5l-260 8q0 122 103.5 217.5t271.5 95.5q370 0 370 -342v-526h-251v63q-33 -35 -92.5 -57t-135.5 -22q-135 0 -212 64t-77 183zM334 930q0 -36 23.5 -54t64.5 -18q58 -2 100.5 32t42.5 95v37 l-112 -8q-119 -10 -119 -84z" glyph-name="ordfeminine" horiz-adv-x="935" unicode="ª"/><glyph d="M31 528l334 482l237 -148l-240 -334l240 -333l-237 -148zM584 528l334 482l237 -148l-237 -334l237 -333l-237 -148z" glyph-name="guillemotleft" horiz-adv-x="1189" unicode="«"/><glyph d="M68 690v232h1087v-621h-233v389h-854z" glyph-name="logicalnot" unicode="¬"/><glyph d="M92 397v279h647v-279h-647z" glyph-name="uni00AD" horiz-adv-x="831" unicode="­"/><glyph d="M55 1034q0 225 157.5 375t397.5 150q236 0 394.5 -150.5t158.5 -374.5t-158.5 -374t-394.5 -150q-158 0 -285.5 68.5t-198.5 188t-71 267.5zM172 1034q0 -185 122 -303.5t316 -118.5q192 0 314.5 118.5t122.5 303.5t-122.5 303.5t-314.5 118.5q-194 0 -316 -118.5 t-122 -303.5zM369 723v627h286q92 0 147.5 -54.5t55.5 -150.5q0 -123 -88 -176l117 -246h-180l-103 217h-72v-217h-163zM532 1071h80q78 0 78 74q0 36 -21 54t-57 18h-80v-146z" glyph-name="registered" horiz-adv-x="1218" unicode="®"/><glyph d="M16 1268v229h615v-229h-615z" glyph-name="macron" horiz-adv-x="649" unicode="¯"/><glyph d="M55 1200v45q0 144 90.5 225.5t239.5 81.5q148 0 240 -82t92 -225v-45q0 -143 -92 -225t-240 -82t-239 81.5t-91 225.5zM258 1210q0 -64 34 -99.5t93 -35.5q58 0 92.5 35.5t34.5 99.5v25q0 64 -34.5 99.5t-92.5 35.5q-59 0 -93 -35.5t-34 -99.5v-25z" glyph-name="degree" horiz-adv-x="772" unicode="°"/><glyph d="M63 102v279h996v-279h-996zM63 850v270h353v361h291v-361h352v-270h-352v-363h-291v363h-353z" glyph-name="plusminus" horiz-adv-x="1122" unicode="±"/><glyph d="M18 1225l175 391h335l-276 -391h-234z" glyph-name="acute" horiz-adv-x="548" unicode="´"/><glyph d="M72 1145q0 187 117.5 287t316.5 100h915v-221h-143v-1448h-231v1448h-197v-1448h-229v891h-115q-199 0 -316.5 100.5t-117.5 290.5z" glyph-name="paragraph" horiz-adv-x="1456" unicode="¶"/><glyph d="M78 662q0 76 52.5 129t127.5 53t128.5 -53t53.5 -129q0 -75 -53.5 -128t-128.5 -53t-127.5 53t-52.5 128z" glyph-name="periodcentered" horiz-adv-x="550" unicode="·"/><glyph d="M39 -477l47 158q47 -29 113 -29q42 0 74 17t32 55q0 39 -31 57t-81 18q-41 0 -74 -10l76 236h131l-27 -109q95 -6 162 -62.5t67 -150.5q0 -107 -83.5 -163t-202.5 -56q-127 0 -203 39z" glyph-name="cedilla" horiz-adv-x="561" unicode="¸"/><glyph d="M70 1106q0 198 127.5 321t326.5 123q200 0 328.5 -123t128.5 -321q0 -197 -128.5 -318.5t-328.5 -121.5t-327 121t-127 319zM340 1106q0 -99 50 -156t134 -57q86 0 137.5 57t51.5 156q0 100 -51.5 157.5t-137.5 57.5q-84 0 -134 -57.5t-50 -157.5z" glyph-name="ordmasculine" horiz-adv-x="1050" unicode="º"/><glyph d="M35 195l239 333l-239 334l237 148l334 -482l-334 -481zM588 195l239 333l-239 334l237 148l334 -482l-334 -481z" glyph-name="guillemotright" horiz-adv-x="1189" unicode="»"/><glyph d="M-8 1323l276 178h146v-842h-230v541l-96 -63zM72 0l1036 1532h305l-1038 -1532h-303zM817 129v178l344 535h221v-510h91v-203h-91v-129h-229v129h-336zM1018 332h135v200z" glyph-name="onequarter" horiz-adv-x="1507" unicode="¼"/><glyph d="M-8 1323l276 178h146v-842h-230v541l-96 -63zM72 0l1036 1532h305l-1038 -1532h-303zM985 588q1 124 77.5 196t201.5 72q141 0 212.5 -74.5t71.5 -197.5q0 -80 -33.5 -147t-95.5 -136l-88 -98h221v-203h-565v158l266 286q34 36 50 68t16 74q0 31 -13 48t-36 17 q-28 0 -44 -20t-16 -56z" glyph-name="onehalf" horiz-adv-x="1597" unicode="½"/><glyph d="M41 907l231 17q3 -76 58 -76q27 0 43 19t16 53q0 73 -70 73h-92v185h88q29 0 49.5 18t20.5 49q0 30 -14.5 47t-38.5 17q-56 0 -56 -68l-223 12q0 123 72 191.5t207 68.5q132 0 204 -68t72 -188q0 -105 -88 -165q43 -21 70.5 -68.5t27.5 -110.5q0 -125 -80 -197.5 t-208 -72.5q-138 0 -212.5 71.5t-76.5 192.5zM231 0l1037 1532h305l-1038 -1532h-304zM977 129v178l344 535h221v-510h90v-203h-90v-129h-229v129h-336zM1178 332h135v200z" glyph-name="threequarters" horiz-adv-x="1667" unicode="¾"/><glyph d="M33 -33q0 61 16 111.5t49 93t61.5 70t76.5 65.5q78 61 114.5 108.5t36.5 110.5v64h318v-76q0 -48 -14.5 -91t-45.5 -82t-60.5 -68.5t-76.5 -69.5q-77 -66 -114.5 -116.5t-37.5 -115.5q0 -89 51 -139.5t140 -50.5t142 54t59 151l315 -21q-7 -210 -148.5 -336.5 t-367.5 -126.5q-237 0 -375.5 125.5t-138.5 339.5zM365 901q0 73 53.5 125.5t128.5 52.5t127.5 -52t52.5 -126q0 -76 -52.5 -129t-127.5 -53t-128.5 53t-53.5 129z" glyph-name="questiondown" horiz-adv-x="1095" unicode="¿"/><glyph d="M16 0l658 1532h266l659 -1532h-348l-125 295h-637l-127 -295h-346zM264 1944h408l262 -316h-272zM602 553h414l-207 489z" glyph-name="Agrave" horiz-adv-x="1615" unicode="À"/><glyph d="M16 0l658 1532h266l659 -1532h-348l-125 295h-637l-127 -295h-346zM602 553h414l-207 489zM670 1628l262 316h407l-397 -316h-272z" glyph-name="Aacute" horiz-adv-x="1615" unicode="Á"/><glyph d="M16 0l658 1532h266l659 -1532h-348l-125 295h-637l-127 -295h-346zM426 1628l240 328h288l238 -328h-252l-131 154l-133 -154h-250zM602 553h414l-207 489z" glyph-name="Acircumflex" horiz-adv-x="1615" unicode="Â"/><glyph d="M16 0l658 1532h266l659 -1532h-348l-125 295h-637l-127 -295h-346zM436 1647q-11 129 49.5 223t169.5 94q44 0 85.5 -17t67.5 -37.5t58.5 -37.5t61.5 -17q83 0 86 95h168q11 -129 -50.5 -223.5t-170.5 -94.5q-44 0 -85.5 17t-67 37.5t-58 37.5t-60.5 17q-86 0 -86 -94 h-168zM602 553h414l-207 489z" glyph-name="Atilde" horiz-adv-x="1615" unicode="Ã"/><glyph d="M16 0l658 1532h266l659 -1532h-348l-125 295h-637l-127 -295h-346zM451 1798q0 68 47 115t114 47q68 0 116 -47.5t48 -114.5t-48 -114.5t-116 -47.5q-67 0 -114 47t-47 115zM602 553h414l-207 489zM846 1798q0 68 47 115t115 47q67 0 114 -47t47 -115t-47 -115t-114 -47 q-68 0 -115 47t-47 115z" glyph-name="Adieresis" horiz-adv-x="1615" unicode="Ä"/><glyph d="M16 0l658 1532h266l659 -1532h-348l-125 295h-637l-127 -295h-346zM571 1843q0 97 68.5 159t169.5 62q97 0 164 -62t67 -159q0 -94 -67.5 -156.5t-163.5 -62.5q-101 0 -169.5 62.5t-68.5 156.5zM602 553h414l-207 489zM723 1843q0 -35 23.5 -57.5t62.5 -22.5 q35 0 57.5 23t22.5 57q0 37 -22.5 60.5t-57.5 23.5q-39 0 -62.5 -23.5t-23.5 -60.5z" glyph-name="Aring" horiz-adv-x="1615" unicode="Å"/><glyph d="M10 0l1032 1532h1018v-279h-667v-331h577v-273h-577v-368h667v-281h-983v295h-483l-199 -295h-385zM766 553h311v471z" glyph-name="AE" horiz-adv-x="2156" unicode="Æ"/><glyph d="M100 766q0 243 101.5 423t277 272.5t400.5 92.5q283 0 484.5 -158t242.5 -425l-330 -29q-32 161 -139.5 246.5t-268.5 85.5q-202 0 -324 -138t-122 -370q0 -122 34.5 -219t95 -160t142 -96t176.5 -33q160 0 268 84.5t138 241.5l332 -29q-28 -169 -123.5 -297.5 t-239.5 -199t-319 -78.5l-19 -74q95 -6 162.5 -62.5t67.5 -150.5q0 -107 -84 -163t-203 -56q-127 0 -203 39l47 157q45 -28 113 -28q42 0 74 17t32 54q0 39 -31 57.5t-81 18.5q-41 0 -74 -10l66 203q-151 14 -278 74t-219.5 158.5t-144 240t-51.5 311.5z" glyph-name="Ccedilla" horiz-adv-x="1691" unicode="Ç"/><glyph d="M109 1944h407l262 -316h-272zM154 0v1532h983v-279h-666v-331h578v-273h-578v-368h668v-281h-985z" glyph-name="Egrave" unicode="È"/><glyph d="M154 0v1532h983v-279h-666v-331h578v-273h-578v-368h668v-281h-985zM516 1628l262 316h408l-398 -316h-272z" glyph-name="Eacute" unicode="É"/><glyph d="M154 0v1532h983v-279h-666v-331h578v-273h-578v-368h668v-281h-985zM270 1628l240 328h289l237 -328h-252l-131 154l-133 -154h-250z" glyph-name="Ecircumflex" unicode="Ê"/><glyph d="M154 0v1532h983v-279h-666v-331h578v-273h-578v-368h668v-281h-985zM295 1798q0 68 47.5 115t114.5 47q68 0 116 -47.5t48 -114.5t-48 -114.5t-116 -47.5q-67 0 -114.5 47t-47.5 115zM690 1798q0 68 47 115t115 47t115 -47t47 -115t-47 -115t-115 -47t-115 47t-47 115z" glyph-name="Edieresis" unicode="Ë"/><glyph d="M-223 1944h407l262 -316h-272zM154 0v1532h317v-1532h-317z" glyph-name="Igrave" horiz-adv-x="624" unicode="Ì"/><glyph d="M154 0v1532h317v-1532h-317zM184 1628l262 316h408l-397 -316h-273z" glyph-name="Iacute" horiz-adv-x="624" unicode="Í"/><glyph d="M-61 1628l239 328h289l238 -328h-252l-131 154l-134 -154h-249zM154 0v1532h317v-1532h-317z" glyph-name="Icircumflex" horiz-adv-x="624" unicode="Î"/><glyph d="M-37 1798q0 68 47.5 115t114.5 47q68 0 116 -47.5t48 -114.5t-48 -114.5t-116 -47.5q-67 0 -114.5 47t-47.5 115zM154 0v1532h317v-1532h-317zM358 1798q0 68 47 115t115 47t115 -47t47 -115t-47 -115t-115 -47t-115 47t-47 115z" glyph-name="Idieresis" horiz-adv-x="624" unicode="Ï"/><glyph d="M16 645v240h172v647h631q219 0 390 -90t270.5 -265.5t99.5 -410.5t-100 -410.5t-271.5 -265.5t-390.5 -90h-629v645h-172zM504 270h317q205 0 325 127t120 369t-119.5 369t-325.5 127h-317v-377h225v-240h-225v-375z" glyph-name="Eth" horiz-adv-x="1648" unicode="Ð"/><glyph d="M154 0v1532h268l674 -950v950h315v-1532h-268l-672 948v-948h-317zM395 1647q-11 129 49.5 223t169.5 94q44 0 85.5 -17t67.5 -37.5t58.5 -37.5t61.5 -17q83 0 86 95h168q11 -129 -50.5 -223.5t-170.5 -94.5q-44 0 -85.5 17t-67 37.5t-58 37.5t-60.5 17q-86 0 -86 -94 h-168z" glyph-name="Ntilde" horiz-adv-x="1564" unicode="Ñ"/><glyph d="M100 766q0 177 60 325.5t165.5 249.5t252.5 157t319 56q170 0 316.5 -56t252.5 -157t166 -249.5t60 -325.5q0 -236 -103.5 -416.5t-283.5 -276.5t-408 -96q-230 0 -410.5 96t-283.5 276.5t-103 416.5zM344 1944h408l262 -316h-273zM422 766q0 -234 131 -371t344 -137 q210 0 340.5 137.5t130.5 370.5q0 234 -130.5 371t-340.5 137q-214 0 -344.5 -136.5t-130.5 -371.5z" glyph-name="Ograve" horiz-adv-x="1792" unicode="Ò"/><glyph d="M100 766q0 177 60 325.5t165.5 249.5t252.5 157t319 56q170 0 316.5 -56t252.5 -157t166 -249.5t60 -325.5q0 -236 -103.5 -416.5t-283.5 -276.5t-408 -96q-230 0 -410.5 96t-283.5 276.5t-103 416.5zM422 766q0 -234 131 -371t344 -137q210 0 340.5 137.5t130.5 370.5 q0 234 -130.5 371t-340.5 137q-214 0 -344.5 -136.5t-130.5 -371.5zM752 1628l262 316h407l-397 -316h-272z" glyph-name="Oacute" horiz-adv-x="1792" unicode="Ó"/><glyph d="M100 766q0 177 60 325.5t165.5 249.5t252.5 157t319 56q170 0 316.5 -56t252.5 -157t166 -249.5t60 -325.5q0 -236 -103.5 -416.5t-283.5 -276.5t-408 -96q-230 0 -410.5 96t-283.5 276.5t-103 416.5zM422 766q0 -234 131 -371t344 -137q210 0 340.5 137.5t130.5 370.5 q0 234 -130.5 371t-340.5 137q-214 0 -344.5 -136.5t-130.5 -371.5zM506 1628l239 328h289l238 -328h-252l-131 154l-133 -154h-250z" glyph-name="Ocircumflex" horiz-adv-x="1792" unicode="Ô"/><glyph d="M100 766q0 177 60 325.5t165.5 249.5t252.5 157t319 56q170 0 316.5 -56t252.5 -157t166 -249.5t60 -325.5q0 -236 -103.5 -416.5t-283.5 -276.5t-408 -96q-230 0 -410.5 96t-283.5 276.5t-103 416.5zM422 766q0 -234 131 -371t344 -137q210 0 340.5 137.5t130.5 370.5 q0 234 -130.5 371t-340.5 137q-214 0 -344.5 -136.5t-130.5 -371.5zM516 1647q-11 129 49.5 223t169.5 94q44 0 85.5 -17t67.5 -37.5t58.5 -37.5t61.5 -17q83 0 86 95h168q11 -129 -51 -223.5t-171 -94.5q-44 0 -85 17t-67 37.5t-58 37.5t-60 17q-86 0 -86 -94h-168z" glyph-name="Otilde" horiz-adv-x="1792" unicode="Õ"/><glyph d="M100 766q0 177 60 325.5t165.5 249.5t252.5 157t319 56q170 0 316.5 -56t252.5 -157t166 -249.5t60 -325.5q0 -236 -103.5 -416.5t-283.5 -276.5t-408 -96q-230 0 -410.5 96t-283.5 276.5t-103 416.5zM422 766q0 -234 131 -371t344 -137q210 0 340.5 137.5t130.5 370.5 q0 234 -130.5 371t-340.5 137q-214 0 -344.5 -136.5t-130.5 -371.5zM532 1798q0 68 47 115t115 47t116 -47.5t48 -114.5t-48 -114.5t-116 -47.5t-115 47t-47 115zM928 1798q0 68 47 115t115 47q67 0 114 -47t47 -115t-47 -115t-114 -47q-68 0 -115 47t-47 115z" glyph-name="Odieresis" horiz-adv-x="1792" unicode="Ö"/><glyph d="M88 483l277 277l-275 274l197 199l274 -277l275 275l198 -199l-274 -272l276 -277l-198 -198l-277 276l-274 -276z" glyph-name="multiply" horiz-adv-x="1124" unicode="×"/><glyph d="M100 766q0 177 60 325.5t165.5 249.5t252.5 157t319 56q209 0 379 -81l125 163l194 -145l-120 -158q104 -105 160.5 -249.5t56.5 -317.5q0 -236 -103.5 -416.5t-283.5 -276.5t-408 -96q-213 0 -393 89l-127 -166l-195 147l125 164q-100 103 -153.5 244.5t-53.5 310.5z M422 766q0 -178 80 -303l592 774q-84 37 -197 37q-214 0 -344.5 -136.5t-130.5 -371.5zM684 301q93 -43 213 -43q210 0 340.5 137.5t130.5 370.5q0 187 -86 315z" glyph-name="Oslash" horiz-adv-x="1777" unicode="Ø"/><glyph d="M143 623v909h316v-905q0 -180 86 -274.5t252 -94.5q163 0 249.5 94.5t86.5 274.5v905h315v-909q0 -305 -174 -475.5t-477 -170.5q-306 0 -480 170t-174 476zM250 1944h407l263 -316h-273z" glyph-name="Ugrave" horiz-adv-x="1591" unicode="Ù"/><glyph d="M143 623v909h316v-905q0 -180 86 -274.5t252 -94.5q163 0 249.5 94.5t86.5 274.5v905h315v-909q0 -305 -174 -475.5t-477 -170.5q-306 0 -480 170t-174 476zM657 1628l263 316h407l-397 -316h-273z" glyph-name="Uacute" horiz-adv-x="1591" unicode="Ú"/><glyph d="M143 623v909h316v-905q0 -180 86 -274.5t252 -94.5q163 0 249.5 94.5t86.5 274.5v905h315v-909q0 -305 -174 -475.5t-477 -170.5q-306 0 -480 170t-174 476zM414 1628l239 328h289l238 -328h-252l-131 154l-133 -154h-250z" glyph-name="Ucircumflex" horiz-adv-x="1591" unicode="Û"/><glyph d="M143 623v909h316v-905q0 -180 86 -274.5t252 -94.5q163 0 249.5 94.5t86.5 274.5v905h315v-909q0 -305 -174 -475.5t-477 -170.5q-306 0 -480 170t-174 476zM438 1798q0 68 47 115t115 47t116 -47.5t48 -114.5t-48 -114.5t-116 -47.5t-115 47t-47 115zM834 1798 q0 68 47 115t114 47t114.5 -47t47.5 -115t-47.5 -115t-114.5 -47t-114 47t-47 115z" glyph-name="Udieresis" horiz-adv-x="1591" unicode="Ü"/><glyph d="M25 1532h366l371 -629l371 629h368l-579 -942v-590h-316v590zM625 1628l262 316h407l-397 -316h-272z" glyph-name="Yacute" horiz-adv-x="1523" unicode="Ý"/><glyph d="M154 0v1532h317v-195h322q223 0 359 -130.5t136 -360.5q0 -229 -136.5 -360.5t-358.5 -131.5h-322v-354h-317zM469 635h283q95 0 154 55.5t59 155.5t-59 155.5t-154 55.5h-283v-422z" glyph-name="Thorn" horiz-adv-x="1343" unicode="Þ"/><glyph d="M145 0v1159q0 204 133 326.5t353 122.5q224 0 357.5 -99t133.5 -262q0 -58 -18.5 -103.5t-44.5 -74t-52 -54t-44.5 -56.5t-18.5 -68q0 -32 17.5 -61t46 -53t62.5 -49.5t68 -57.5t62.5 -69t46 -91.5t17.5 -118.5q0 -128 -64 -221.5t-171 -139.5t-243 -46q-116 0 -219 39 l58 237q69 -27 135 -27q87 0 145 49t58 138q0 41 -17.5 78t-46 65.5t-62.5 56t-68 55.5t-62.5 57.5t-46 69t-17.5 83.5q0 53 18.5 93t44.5 64.5t52 45.5t44.5 48t18.5 60q0 75 -47.5 118.5t-136.5 43.5q-90 0 -141.5 -54.5t-51.5 -152.5v-1151h-299z" glyph-name="germandbls" horiz-adv-x="1349" unicode="ß"/><glyph d="M90 291q0 302 424 321l188 11v41q0 163 -137 163q-72 0 -109.5 -40.5t-37.5 -98.5l-299 12q0 70 31.5 137.5t87 121.5t140.5 87t183 33q214 0 327 -108.5t113 -317.5v-653h-288v86q-105 -109 -271 -109q-163 0 -257.5 81.5t-94.5 232.5zM182 1616h340l170 -391h-231z M389 305q0 -96 123 -96q85 0 137.5 45t52.5 127v45l-159 -10q-154 -7 -154 -111z" glyph-name="agrave" horiz-adv-x="1140" unicode="à"/><glyph d="M90 291q0 302 424 321l188 11v41q0 163 -137 163q-72 0 -109.5 -40.5t-37.5 -98.5l-299 12q0 70 31.5 137.5t87 121.5t140.5 87t183 33q214 0 327 -108.5t113 -317.5v-653h-288v86q-105 -109 -271 -109q-163 0 -257.5 81.5t-94.5 232.5zM389 305q0 -96 123 -96 q85 0 137.5 45t52.5 127v45l-159 -10q-154 -7 -154 -111zM463 1225l174 391h336l-277 -391h-233z" glyph-name="aacute" horiz-adv-x="1140" unicode="á"/><glyph d="M90 291q0 302 424 321l188 11v41q0 163 -137 163q-72 0 -109.5 -40.5t-37.5 -98.5l-299 12q0 70 31.5 137.5t87 121.5t140.5 87t183 33q214 0 327 -108.5t113 -317.5v-653h-288v86q-105 -109 -271 -109q-163 0 -257.5 81.5t-94.5 232.5zM203 1227l237 362h289l240 -362 h-250l-133 168l-133 -168h-250zM389 305q0 -96 123 -96q85 0 137.5 45t52.5 127v45l-159 -10q-154 -7 -154 -111z" glyph-name="acircumflex" horiz-adv-x="1140" unicode="â"/><glyph d="M90 291q0 302 424 321l188 11v41q0 163 -137 163q-72 0 -109.5 -40.5t-37.5 -98.5l-299 12q0 70 31.5 137.5t87 121.5t140.5 87t183 33q214 0 327 -108.5t113 -317.5v-653h-288v86q-105 -109 -271 -109q-163 0 -257.5 81.5t-94.5 232.5zM211 1239q-7 84 16.5 156.5 t77 118t125.5 45.5q44 0 85 -17.5t67 -38t58.5 -38t61.5 -17.5q83 0 86 96h168q11 -129 -50.5 -224t-170.5 -95q-56 0 -105 27t-89.5 54t-75.5 27q-86 0 -86 -94h-168zM389 305q0 -96 123 -96q85 0 137.5 45t52.5 127v45l-159 -10q-154 -7 -154 -111z" glyph-name="atilde" horiz-adv-x="1140" unicode="ã"/><glyph d="M90 291q0 302 424 321l188 11v41q0 163 -137 163q-72 0 -109.5 -40.5t-37.5 -98.5l-299 12q0 70 31.5 137.5t87 121.5t140.5 87t183 33q214 0 327 -108.5t113 -317.5v-653h-288v86q-105 -109 -271 -109q-163 0 -257.5 81.5t-94.5 232.5zM223 1391q0 66 47.5 112.5 t114.5 46.5q68 0 116 -46.5t48 -112.5q0 -68 -48 -115t-116 -47t-115 46.5t-47 115.5zM389 305q0 -96 123 -96q85 0 137.5 45t52.5 127v45l-159 -10q-154 -7 -154 -111zM618 1391q0 66 47.5 112.5t114.5 46.5t114.5 -46.5t47.5 -112.5q0 -69 -47 -115.5t-115 -46.5 t-115 46.5t-47 115.5z" glyph-name="adieresis" horiz-adv-x="1140" unicode="ä"/><glyph d="M90 291q0 302 424 321l188 11v41q0 163 -137 163q-72 0 -109.5 -40.5t-37.5 -98.5l-299 12q0 70 31.5 137.5t87 121.5t140.5 87t183 33q214 0 327 -108.5t113 -317.5v-653h-288v86q-105 -109 -271 -109q-163 0 -257.5 81.5t-94.5 232.5zM315 1436q0 108 77.5 179 t191.5 71q113 0 190.5 -71t77.5 -179t-77.5 -179t-190.5 -71q-114 0 -191.5 71t-77.5 179zM389 305q0 -96 123 -96q85 0 137.5 45t52.5 127v45l-159 -10q-154 -7 -154 -111zM492 1436q0 -40 25 -64t67 -24q41 0 65.5 24t24.5 64t-24.5 65t-65.5 25q-42 0 -67 -25t-25 -65z" glyph-name="aring" horiz-adv-x="1140" unicode="å"/><glyph d="M90 295q0 298 424 317l188 11v39q0 76 -33.5 121.5t-105.5 45.5t-108.5 -41.5t-36.5 -99.5l-299 12q0 70 30.5 137.5t85 121.5t138.5 87t182 33q215 0 328 -125q140 125 362 125q231 0 368.5 -140.5t137.5 -385.5v-119h-727q5 -99 63 -157t158 -58q77 0 127.5 30.5 t67.5 86.5l301 -14q-29 -151 -166 -248t-324 -97q-254 0 -405 160q-153 -160 -379 -160q-175 0 -276 83.5t-101 234.5zM389 307q0 -94 123 -94q80 0 135 41.5t55 126.5v45l-159 -10q-154 -7 -154 -109zM1024 633h426q-5 100 -57.5 156.5t-151.5 56.5q-95 0 -153 -56.5 t-64 -156.5z" glyph-name="ae" horiz-adv-x="1841" unicode="æ"/><glyph d="M90 528q0 256 151.5 403.5t391.5 147.5q197 0 335 -110t167 -299l-293 -25q-11 82 -67 130t-142 48q-107 0 -173.5 -78.5t-66.5 -216.5q0 -137 66.5 -214.5t173.5 -77.5q87 0 143 46t68 126l291 -27q-29 -175 -154 -282.5t-305 -118.5l-19 -72q95 -6 162.5 -62.5 t67.5 -150.5q0 -107 -84 -163t-203 -56q-127 0 -203 39l47 157q45 -28 113 -28q43 0 75 17t32 54q0 39 -31.5 57.5t-81.5 18.5q-41 0 -74 -10l66 203q-203 29 -328 172.5t-125 371.5z" glyph-name="ccedilla" horiz-adv-x="1212" unicode="ç"/><glyph d="M90 528q0 253 149.5 402t389.5 149q231 0 368.5 -140.5t137.5 -385.5v-119h-727q5 -99 63 -157t158 -58q77 0 127 30.5t67 86.5l301 -14q-28 -151 -164.5 -248t-322.5 -97q-245 0 -396 149t-151 402zM219 1616h340l170 -391h-231zM408 633h426q-5 100 -57 156.5 t-150 56.5q-96 0 -154.5 -56t-64.5 -157z" glyph-name="egrave" horiz-adv-x="1224" unicode="è"/><glyph d="M90 528q0 253 149.5 402t389.5 149q231 0 368.5 -140.5t137.5 -385.5v-119h-727q5 -99 63 -157t158 -58q77 0 127 30.5t67 86.5l301 -14q-28 -151 -164.5 -248t-322.5 -97q-245 0 -396 149t-151 402zM408 633h426q-5 100 -57 156.5t-150 56.5q-96 0 -154.5 -56 t-64.5 -157zM502 1225l174 391h336l-277 -391h-233z" glyph-name="eacute" horiz-adv-x="1224" unicode="é"/><glyph d="M90 528q0 253 149.5 402t389.5 149q231 0 368.5 -140.5t137.5 -385.5v-119h-727q5 -99 63 -157t158 -58q77 0 127 30.5t67 86.5l301 -14q-28 -151 -164.5 -248t-322.5 -97q-245 0 -396 149t-151 402zM240 1227l237 362h289l240 -362h-250l-133 168l-134 -168h-249z M408 633h426q-5 100 -57 156.5t-150 56.5q-96 0 -154.5 -56t-64.5 -157z" glyph-name="ecircumflex" horiz-adv-x="1224" unicode="ê"/><glyph d="M90 528q0 253 149.5 402t389.5 149q231 0 368.5 -140.5t137.5 -385.5v-119h-727q5 -99 63 -157t158 -58q77 0 127 30.5t67 86.5l301 -14q-28 -151 -164.5 -248t-322.5 -97q-245 0 -396 149t-151 402zM260 1391q0 66 47.5 112.5t114.5 46.5q68 0 116 -46.5t48 -112.5 q0 -68 -48 -115t-116 -47t-115 46.5t-47 115.5zM408 633h426q-5 100 -57 156.5t-150 56.5q-96 0 -154.5 -56t-64.5 -157zM655 1391q0 66 47.5 112.5t114.5 46.5t114.5 -46.5t47.5 -112.5q0 -69 -47 -115.5t-115 -46.5t-115 46.5t-47 115.5z" glyph-name="edieresis" horiz-adv-x="1224" unicode="ë"/><glyph d="M-98 1616h340l170 -391h-232zM147 0v1059h299v-1059h-299z" glyph-name="igrave" horiz-adv-x="595" unicode="ì"/><glyph d="M147 0v1059h299v-1059h-299zM182 1225l174 391h336l-276 -391h-234z" glyph-name="iacute" horiz-adv-x="595" unicode="í"/><glyph d="M-78 1227l238 362h289l239 -362h-250l-133 168l-133 -168h-250zM147 0v1059h299v-1059h-299z" glyph-name="icircumflex" horiz-adv-x="595" unicode="î"/><glyph d="M-57 1391q0 66 47 112.5t114 46.5q68 0 116 -46.5t48 -112.5q0 -68 -48 -115t-116 -47t-114.5 46.5t-46.5 115.5zM147 0v1059h299v-1059h-299zM338 1391q0 66 47.5 112.5t114.5 46.5t114.5 -46.5t47.5 -112.5q0 -69 -47 -115.5t-115 -46.5t-115 46.5t-47 115.5z" glyph-name="idieresis" horiz-adv-x="595" unicode="ï"/><glyph d="M90 487q0 152 72 267.5t189 174t259 58.5q108 0 201 -35q-46 162 -137 256l-146 -137l-135 133l119 111q-98 41 -244 47v229q246 0 434 -98l160 149l139 -129l-141 -133q145 -135 218 -347t73 -482q0 -273 -146.5 -423.5t-392.5 -150.5q-143 0 -260 58.5t-189.5 176 t-72.5 275.5zM383 485q0 -119 67.5 -189.5t172.5 -70.5q108 0 171.5 72.5t63.5 187.5q0 120 -62.5 190t-172.5 70q-106 0 -173 -71t-67 -189z" glyph-name="eth" horiz-adv-x="1245" unicode="ð"/><glyph d="M147 0v1059h283v-109q37 59 109.5 94t175.5 35q186 0 299.5 -115t113.5 -317v-647h-299v590q0 100 -49.5 155.5t-136.5 55.5q-89 0 -143 -58.5t-54 -154.5v-588h-299zM283 1239q-7 84 16.5 156.5t77 118t125.5 45.5q44 0 85 -17.5t67 -38t58.5 -38t61.5 -17.5q83 0 86 96 h168q11 -129 -50.5 -224t-170.5 -95q-56 0 -105 27t-89.5 54t-75.5 27q-86 0 -86 -94h-168z" glyph-name="ntilde" horiz-adv-x="1265" unicode="ñ"/><glyph d="M90 528q0 164 73 290t201 193.5t289 67.5q246 0 405 -152t159 -399q0 -246 -159 -398.5t-405 -152.5t-404.5 152.5t-158.5 398.5zM248 1616h340l170 -391h-232zM393 528q0 -136 71.5 -214t188.5 -78t188.5 78t71.5 214q0 137 -71.5 216t-188.5 79t-188.5 -79t-71.5 -216z" glyph-name="ograve" horiz-adv-x="1306" unicode="ò"/><glyph d="M90 528q0 164 73 290t201 193.5t289 67.5q246 0 405 -152t159 -399q0 -246 -159 -398.5t-405 -152.5t-404.5 152.5t-158.5 398.5zM393 528q0 -136 71.5 -214t188.5 -78t188.5 78t71.5 214q0 137 -71.5 216t-188.5 79t-188.5 -79t-71.5 -216zM530 1225l175 391h335 l-276 -391h-234z" glyph-name="oacute" horiz-adv-x="1306" unicode="ó"/><glyph d="M90 528q0 164 73 290t201 193.5t289 67.5q246 0 405 -152t159 -399q0 -246 -159 -398.5t-405 -152.5t-404.5 152.5t-158.5 398.5zM268 1227l238 362h289l239 -362h-250l-133 168l-133 -168h-250zM393 528q0 -136 71.5 -214t188.5 -78t188.5 78t71.5 214q0 137 -71.5 216 t-188.5 79t-188.5 -79t-71.5 -216z" glyph-name="ocircumflex" horiz-adv-x="1306" unicode="ô"/><glyph d="M90 528q0 164 73 290t201 193.5t289 67.5q246 0 405 -152t159 -399q0 -246 -159 -398.5t-405 -152.5t-404.5 152.5t-158.5 398.5zM276 1239q-7 84 16.5 156.5t77.5 118t126 45.5q44 0 85 -17.5t67 -38t58.5 -38t61.5 -17.5q83 0 86 96h168q11 -129 -50.5 -224t-170.5 -95 q-44 0 -85.5 17t-67 37t-58 37t-60.5 17q-86 0 -86 -94h-168zM393 528q0 -136 71.5 -214t188.5 -78t188.5 78t71.5 214q0 137 -71.5 216t-188.5 79t-188.5 -79t-71.5 -216z" glyph-name="otilde" horiz-adv-x="1306" unicode="õ"/><glyph d="M90 528q0 164 73 290t201 193.5t289 67.5q246 0 405 -152t159 -399q0 -246 -159 -398.5t-405 -152.5t-404.5 152.5t-158.5 398.5zM289 1391q0 66 47.5 112.5t114.5 46.5q68 0 115.5 -46.5t47.5 -112.5q0 -69 -47.5 -115.5t-115.5 -46.5t-115 46.5t-47 115.5zM393 528 q0 -136 71.5 -214t188.5 -78t188.5 78t71.5 214q0 137 -71.5 216t-188.5 79t-188.5 -79t-71.5 -216zM684 1391q0 66 47.5 112.5t114.5 46.5t114.5 -46.5t47.5 -112.5q0 -69 -47 -115.5t-115 -46.5t-115 46.5t-47 115.5z" glyph-name="odieresis" horiz-adv-x="1306" unicode="ö"/><glyph d="M63 621v280h996v-280h-996zM381 266q0 75 52.5 127.5t127.5 52.5t128.5 -52.5t53.5 -127.5t-53.5 -128.5t-128.5 -53.5t-127.5 53.5t-52.5 128.5zM381 1255q0 75 52.5 129t127.5 54t128.5 -54t53.5 -129t-53.5 -126.5t-128.5 -51.5t-127.5 51.5t-52.5 126.5z" glyph-name="divide" horiz-adv-x="1122" unicode="÷"/><glyph d="M90 528q0 164 73 290t201 193.5t289 67.5q137 0 254 -51l76 102l164 -122l-74 -97q144 -150 144 -383q0 -246 -159 -398.5t-405 -152.5q-135 0 -247 50l-91 -121l-163 121l86 114q-148 154 -148 387zM393 528q0 -76 27 -145l321 426q-38 14 -88 14q-117 0 -188.5 -79 t-71.5 -216zM573 246q42 -10 80 -10q117 0 188.5 78t71.5 214q0 77 -22 138z" glyph-name="oslash" horiz-adv-x="1306" unicode="ø"/><glyph d="M137 393v666h299v-602q0 -201 170 -201q84 0 132 57t48 148v598h299v-1059h-282v106q-80 -129 -275 -129q-183 0 -287 111t-104 305zM215 1616h340l170 -391h-231z" glyph-name="ugrave" unicode="ù"/><glyph d="M137 393v666h299v-602q0 -201 170 -201q84 0 132 57t48 148v598h299v-1059h-282v106q-80 -129 -275 -129q-183 0 -287 111t-104 305zM498 1225l174 391h336l-277 -391h-233z" glyph-name="uacute" unicode="ú"/><glyph d="M137 393v666h299v-602q0 -201 170 -201q84 0 132 57t48 148v598h299v-1059h-282v106q-80 -129 -275 -129q-183 0 -287 111t-104 305zM236 1227l237 362h289l239 -362h-249l-134 168l-133 -168h-249z" glyph-name="ucircumflex" unicode="û"/><glyph d="M137 393v666h299v-602q0 -201 170 -201q84 0 132 57t48 148v598h299v-1059h-282v106q-80 -129 -275 -129q-183 0 -287 111t-104 305zM256 1391q0 66 47.5 112.5t114.5 46.5q68 0 116 -46.5t48 -112.5q0 -68 -48 -115t-116 -47t-115 46.5t-47 115.5zM651 1391 q0 66 47.5 112.5t114.5 46.5t114.5 -46.5t47.5 -112.5q0 -69 -47 -115.5t-115 -46.5t-115 46.5t-47 115.5z" glyph-name="udieresis" unicode="ü"/><glyph d="M14 1059h330l244 -631l241 631h332l-678 -1581h-325l270 616zM465 1225l174 391h336l-277 -391h-233z" glyph-name="yacute" horiz-adv-x="1173" unicode="ý"/><glyph d="M147 -522v2113h299v-624q43 50 121.5 81t175.5 31q227 0 369.5 -151.5t142.5 -399.5t-142.5 -399.5t-369.5 -151.5q-96 0 -174.5 32t-122.5 81v-612h-299zM446 504q0 -126 69 -198.5t181 -72.5q115 0 185.5 78.5t70.5 216.5t-70.5 216.5t-185.5 78.5q-112 0 -181 -72 t-69 -198v-49z" glyph-name="thorn" horiz-adv-x="1345" unicode="þ"/><glyph d="M14 1059h330l244 -631l241 631h332l-678 -1581h-325l270 616zM225 1391q0 66 47.5 112.5t114.5 46.5q68 0 116 -46.5t48 -112.5q0 -68 -48 -115t-116 -47t-115 46.5t-47 115.5zM621 1391q0 66 47 112.5t114 46.5t114.5 -46.5t47.5 -112.5q0 -69 -47 -115.5t-115 -46.5 t-114.5 46.5t-46.5 115.5z" glyph-name="ydieresis" horiz-adv-x="1173" unicode="ÿ"/><glyph d="M100 766q0 177 60 325.5t165.5 249.5t252.5 157t319 56q272 0 473 -137v115h981v-279h-665v-331h577v-273h-577v-368h667v-281h-983v115q-202 -138 -473 -138q-230 0 -410.5 96t-283.5 276.5t-103 416.5zM422 766q0 -234 131 -371t344 -137q210 0 340.5 137.5 t130.5 370.5q0 234 -130.5 371t-340.5 137q-214 0 -344.5 -136.5t-130.5 -371.5z" glyph-name="OE" horiz-adv-x="2447" unicode="Œ"/><glyph d="M90 528q0 164 73 290t201 193.5t289 67.5q250 0 406 -153q150 153 393 153q231 0 368.5 -140.5t137.5 -385.5v-119h-727q5 -99 63 -157t158 -58q77 0 127.5 30.5t67.5 86.5l301 -14q-29 -151 -166 -248t-324 -97q-248 0 -399 154q-157 -154 -406 -154 q-246 0 -404.5 152.5t-158.5 398.5zM393 528q0 -136 71.5 -214t188.5 -78t188.5 78t71.5 214q0 137 -71.5 216t-188.5 79t-188.5 -79t-71.5 -216zM1231 633h426q-5 100 -57.5 156.5t-151.5 56.5q-95 0 -153 -56.5t-64 -156.5z" glyph-name="oe" horiz-adv-x="2050" unicode="œ"/><glyph d="M25 1532h366l371 -629l371 629h368l-579 -942v-590h-316v590zM406 1798q0 68 47 115t114 47q68 0 116 -47.5t48 -114.5t-48 -114.5t-116 -47.5q-67 0 -114 47t-47 115zM801 1798q0 68 47.5 115t114.5 47t114 -47t47 -115t-47 -115t-114 -47t-114.5 47t-47.5 115z" glyph-name="Ydieresis" horiz-adv-x="1523" unicode="Ÿ"/><glyph d="M18 1227l238 362h289l239 -362h-249l-134 168l-133 -168h-250z" glyph-name="circumflex" horiz-adv-x="800" unicode="ˆ"/><glyph d="M20 1239q-7 84 16.5 156.5t77.5 118t126 45.5q44 0 85 -17.5t67 -38t58.5 -38t61.5 -17.5q83 0 86 96h168q11 -129 -50.5 -224t-170.5 -95q-44 0 -85.5 17t-67 37t-58 37t-60.5 17q-86 0 -86 -94h-168z" glyph-name="tilde" horiz-adv-x="786" unicode="˜"/><glyph glyph-name="uni2000" horiz-adv-x="1032"/><glyph glyph-name="uni2001" horiz-adv-x="2064"/><glyph glyph-name="uni2002" horiz-adv-x="1032"/><glyph glyph-name="uni2003" horiz-adv-x="2064"/><glyph glyph-name="uni2004" horiz-adv-x="688"/><glyph glyph-name="uni2005" horiz-adv-x="516"/><glyph glyph-name="uni2006" horiz-adv-x="344"/><glyph glyph-name="uni2007" horiz-adv-x="344"/><glyph glyph-name="uni2008" horiz-adv-x="258"/><glyph glyph-name="uni2009" horiz-adv-x="412"/><glyph glyph-name="uni200A" horiz-adv-x="114"/><glyph d="M92 397v279h647v-279h-647z" glyph-name="uni2010" horiz-adv-x="831" unicode="‐"/><glyph d="M92 397v279h647v-279h-647z" glyph-name="uni2011" horiz-adv-x="831" unicode="‑"/><glyph d="M92 397v279h647v-279h-647z" glyph-name="figuredash" horiz-adv-x="831" unicode="‒"/><glyph d="M92 397v279h975v-279h-975z" glyph-name="endash" horiz-adv-x="1159" unicode="–"/><glyph d="M92 397v279h1450v-279h-1450z" glyph-name="emdash" horiz-adv-x="1634" unicode="—"/><glyph d="M76 1118v2v2q3 306 311 465v-123q-109 -71 -135 -184q69 -5 117.5 -56.5t48.5 -123.5q0 -76 -49 -128t-125 -52q-78 0 -123 54.5t-45 143.5z" glyph-name="quoteleft" horiz-adv-x="458" unicode="‘"/><glyph d="M41 1407q0 76 50 128t126 52q78 0 123 -54.5t45 -143.5q0 -309 -313 -469v124q108 67 135 185q-70 5 -118 56t-48 122z" glyph-name="quoteright" horiz-adv-x="458" unicode="’"/><glyph d="M41 158q0 76 50 129t126 53q78 0 123 -55.5t45 -145.5q0 -309 -313 -469v125q108 67 135 185q-70 5 -118 56t-48 122z" glyph-name="quotesinglbase" horiz-adv-x="458" unicode="‚"/><glyph d="M72 1118q0 309 313 469v-125q-107 -67 -137 -184q71 -5 119.5 -55.5t48.5 -122.5q0 -76 -50 -129t-126 -53q-78 0 -123 55.5t-45 144.5zM500 1118q0 309 313 469v-125q-107 -67 -137 -184q71 -5 119.5 -55.5t48.5 -122.5q0 -76 -50 -129t-126 -53q-78 0 -123 55.5 t-45 144.5z" glyph-name="quotedblleft" horiz-adv-x="886" unicode="“"/><glyph d="M37 1407q0 76 50 129t126 53q78 0 123 -55.5t45 -144.5q0 -309 -313 -469v124q107 67 137 185q-71 5 -119.5 55.5t-48.5 122.5zM465 1407q0 76 50 129t126 53q78 0 123 -55.5t45 -144.5q0 -309 -313 -469v124q107 67 137 185q-71 5 -119.5 55.5t-48.5 122.5z" glyph-name="quotedblright" horiz-adv-x="886" unicode="”"/><glyph d="M41 158q0 76 50 129t126 53q78 0 123 -55.5t45 -145.5q0 -309 -313 -469v125q108 67 135 185q-70 5 -118 56t-48 122zM469 158q0 76 50 129t126 53q78 0 123 -55.5t45 -145.5q0 -309 -313 -469v125q108 67 135 185q-70 5 -118 56t-48 122z" glyph-name="quotedblbase" horiz-adv-x="886" unicode="„"/><glyph d="M98 522q0 107 75.5 182.5t184.5 75.5q106 0 182 -75.5t76 -182.5q0 -108 -76 -184t-182 -76q-109 0 -184.5 75.5t-75.5 184.5z" glyph-name="bullet" horiz-adv-x="714" unicode="•"/><glyph d="M78 158q0 76 52.5 129t127.5 53t128.5 -53t53.5 -129q0 -75 -53.5 -128t-128.5 -53t-127.5 53t-52.5 128zM600 158q0 76 52.5 129t127.5 53t129 -53t54 -129q0 -75 -54 -128t-129 -53t-127.5 53t-52.5 128zM1122 158q0 76 53 129t128 53t128.5 -53t53.5 -129 q0 -75 -53.5 -128t-128.5 -53t-128 53t-53 128z" glyph-name="ellipsis" horiz-adv-x="1595" unicode="…"/><glyph glyph-name="uni202F" horiz-adv-x="412"/><glyph d="M31 528l413 476l213 -189l-268 -287l268 -286l-213 -189z" glyph-name="guilsinglleft" horiz-adv-x="692" unicode="‹"/><glyph d="M35 242l268 286l-268 287l213 189l414 -476l-414 -475z" glyph-name="guilsinglright" horiz-adv-x="692" unicode="›"/><glyph glyph-name="uni205F" horiz-adv-x="516"/><glyph d="M20 500l70 184h143q-2 27 -2 82q0 49 2 72h-213l70 184h172q66 253 249.5 392.5t420.5 139.5q135 0 231 -31.5t189 -97.5l-99 -262q-127 111 -307 111q-124 0 -215.5 -64t-136.5 -188h604l-70 -184h-573q-2 -23 -2 -72q0 -28 4 -82h510l-68 -184h-401q46 -118 137.5 -180 t210.5 -62q167 0 301 111l131 -265q-104 -67 -205 -97t-245 -30q-234 0 -415.5 138t-248.5 385h-244z" glyph-name="Euro" horiz-adv-x="1445" unicode="€"/><glyph d="M43 1321v211h696v-211h-239v-524h-219v524h-238zM844 797v735h186l248 -445l248 445h186v-735h-219v303l-166 -295h-98l-166 295v-303h-219z" glyph-name="trademark" horiz-adv-x="1830" unicode="™"/><glyph d="M0 0v1055h1055v-1055h-1055z" glyph-name="uni25FC" horiz-adv-x="1054" unicode="◼"/><glyph d="M10 801v258h193v108q0 199 120 318t320 119q51 0 105 -7v-258q-36 4 -70 4q-78 0 -128 -46t-50 -121v-117h245v-258h-245v-801h-297v801h-193zM926 0v1591h299v-1591h-299z" glyph-name="uniFB02" horiz-adv-x="1372" unicode="ﬂ"/><glyph glyph-name="glyph1" horiz-adv-x="0"/><glyph glyph-name="glyph2" horiz-adv-x="682"/></font>
</defs>
</svg>
